<?xml version="1.0" encoding="UTF-8" standalone="no"?>
<!-- Created with Inkscape (http://www.inkscape.org/) -->

<svg
   xmlns:dc="http://purl.org/dc/elements/1.1/"
   xmlns:cc="http://creativecommons.org/ns#"
   xmlns:rdf="http://www.w3.org/1999/02/22-rdf-syntax-ns#"
   xmlns:svg="http://www.w3.org/2000/svg"
   xmlns="http://www.w3.org/2000/svg"
   xmlns:sodipodi="http://sodipodi.sourceforge.net/DTD/sodipodi-0.dtd"
   xmlns:inkscape="http://www.inkscape.org/namespaces/inkscape"
   width="72.054657mm"
   height="72.054657mm"
   viewBox="0 0 72.054657 72.054657"
   version="1.1"
   id="svg1823"
   inkscape:version="0.92.4 (5da689c313, 2019-01-14)"
   sodipodi:docname="icon.svg"
   inkscape:export-filename="D:\PROJECT\Startup\ResponsivePagination\Non-Codes\Designs\Brand Identity\Logo &amp; Icon\Logos\Logo v.3\icon-128x128.png"
   inkscape:export-xdpi="45.121304"
   inkscape:export-ydpi="45.121304">
  <defs
     id="defs1817" />
  <sodipodi:namedview
     id="base"
     pagecolor="#ffffff"
     bordercolor="#666666"
     borderopacity="1.0"
     inkscape:pageopacity="0.0"
     inkscape:pageshadow="2"
     inkscape:zoom="1.4"
     inkscape:cx="258.18882"
     inkscape:cy="63.36573"
     inkscape:document-units="mm"
     inkscape:current-layer="layer1"
     showgrid="false"
     fit-margin-top="0"
     fit-margin-left="0"
     fit-margin-right="0"
     fit-margin-bottom="0"
     inkscape:window-width="1920"
     inkscape:window-height="1001"
     inkscape:window-x="-9"
     inkscape:window-y="-9"
     inkscape:window-maximized="1" />
  <metadata
     id="metadata1820">
    <rdf:RDF>
      <cc:Work
         rdf:about="">
        <dc:format>image/svg+xml</dc:format>
        <dc:type
           rdf:resource="http://purl.org/dc/dcmitype/StillImage" />
        <dc:title></dc:title>
      </cc:Work>
    </rdf:RDF>
  </metadata>
  <g
     inkscape:label="Layer 1"
     inkscape:groupmode="layer"
     id="layer1"
     transform="translate(258.27734,21.753519)">
    <rect
       style="opacity:1;fill:none;fill-opacity:1;stroke:none;stroke-width:1.0309732;stroke-linecap:round;stroke-miterlimit:4;stroke-dasharray:none;stroke-dashoffset:0;stroke-opacity:1"
       id="rect1551-2-0-5-1-0"
       width="72.054657"
       height="72.054657"
       x="-258.27734"
       y="-21.753519"
       ry="3.3086369" />
    <g
       id="g1107-9-8-2-1-9-5-0-88-7-0-4"
       transform="matrix(1.0236741,0,0,1.0236741,-129.4523,-309.26903)">
      <g
         inkscape:label="Layer 1"
         id="layer1-6-7-7-5-0-8-0-87-5-8-1-4-5"
         transform="matrix(1.4388836,0,0,1.4388836,225.90079,272.67977)">
        <g
           id="g1505-8-3-2-4-1-0-4-4-2-5-4-9">
          <rect
             inkscape:export-ydpi="460.79999"
             inkscape:export-xdpi="460.79999"
             inkscape:export-filename="D:\PROJECT\Startup\ResponsivePagination\Non-Codes\Designs\Brand Identity\Logos\Icon-480px.png"
             y="16.919643"
             x="-233.21133"
             height="26.458334"
             width="26.458334"
             id="rect908-4-8-9-8-9-7-6-6-2-7-5-2"
             style="opacity:1;fill:none;fill-opacity:0.94117647;stroke:none;stroke-width:2.4968276;stroke-linecap:round;stroke-miterlimit:4;stroke-dasharray:none;stroke-dashoffset:0;stroke-opacity:1" />
          <g
             inkscape:export-ydpi="614.40021"
             inkscape:export-xdpi="614.40021"
             inkscape:export-filename="D:\PROJECT\Startup\ResponsivePagination\Non-Codes\Designs\Brand Identity\Logos\Icon.png"
             transform="matrix(0.78389295,0,0,0.78389295,1114.5482,2878.3971)"
             id="g5781-5-4-1-1-5-7-1-32-2-9-2-1-5-1-2-6-7">
            <g
               style="fill:#26485f;fill-opacity:1;stroke-width:33.80500031;stroke-linecap:round"
               id="g5221-5-9-8-00-2-7-2-4-0-40-45-3-4-80-3-2-9-0-8"
               transform="matrix(0.08720133,0,0,0.08720133,-1719.3156,-3650.2957)">
              <path
                 inkscape:connector-curvature="0"
                 d="M 62.812,48.073 79.25,93.261 c -0.03551,0.03839 -0.05829,0.08658 -0.09375,0.125 l 0.125,0.375 c -6.9124,7.5339 -13.13,15.847 -18.5,24.906 l -49.5,-1.3438 c -0.98158,2.2241 -1.9852,4.4456 -2.875,6.6875 -1.2123,3.0543 -2.331,6.105 -3.375,9.1875 -1.0437,3.0826 -2.0292,6.2072 -2.9062,9.3125 -0.78568,2.7821 -1.4725,5.5499 -2.125,8.3438 l 40.5,27.094 c -0.04924,0.44421 -0.0174,0.89896 -0.0625,1.3438 l 0.2812,0.1875 c -0.4657,4.7236 -0.62151,9.448 -0.625,14.156 h 88.938 c 0.0178,-2.8372 0.25076,-5.678 0.65625,-8.4688 0.40546,-2.7907 1.0008,-5.5447 1.7812,-8.25 0.78046,-2.7053 1.7322,-5.3565 2.875,-7.9375 1.1428,-2.581 2.4763,-5.0822 3.9688,-7.5 1.4925,-2.4178 3.1393,-4.753 4.9688,-6.9688 1.8295,-2.2157 3.8462,-4.3065 6,-6.2812 2.1538,-1.9748 4.4407,-3.8363 6.9062,-5.5312 2.4656,-1.695 5.1104,-3.2488 7.875,-4.625 1.9729,-0.98215 3.9477,-1.8279 5.9688,-2.5938 2.0211,-0.76581 4.0702,-1.4459 6.125,-2 2.0548,-0.55411 4.1135,-0.99676 6.1875,-1.3438 0.97446,-0.16302 1.9612,-0.22571 2.9375,-0.34375 0.33383,-0.043 0.66531,-0.0871 1,-0.125 0.76926,-0.081 1.5432,-0.22778 2.3125,-0.28125 0.75201,-0.0523 1.4987,-0.005 2.25,-0.0312 0.85346,-0.0369 1.7062,-0.0591 2.5625,-0.0625 0.46866,0.002 0.93835,-0.0433 1.4062,-0.0312 0.34445,0.009 0.68732,0.0482 1.0312,0.0625 1.7177,0.0572 3.4372,0.21198 5.1562,0.40625 7.3784,0.83383 14.746,2.8573 21.75,6.3438 22.117,11.01 34.826,32.865 34.969,55.562 h 89.031 c -9.8e-4,-4.7262 -0.21802,-9.4773 -0.6875,-14.219 l 41,-27.438 c -0.012,-0.0529 -0.0504,-0.10336 -0.0625,-0.15625 -0.7121,-3.1226 -1.498,-6.2384 -2.375,-9.3438 -0.87695,-3.1054 -1.8312,-6.1987 -2.875,-9.2812 -1.0437,-3.0826 -2.1627,-6.1332 -3.375,-9.1875 -0.88007,-2.2174 -1.8404,-4.4292 -2.8125,-6.625 l -49.125,1.3438 c -0.32849,-0.55521 -0.72672,-1.0736 -1.0625,-1.625 h -0.3125 c -2.4079,-3.9531 -4.9672,-7.7752 -7.6875,-11.438 -2.7203,-3.6623 -5.587,-7.1699 -8.5938,-10.531 l 16.688,-45.812 c -1.45,-1.2646 -2.8912,-2.5309 -4.375,-3.75 -2.4672,-2.0271 -4.9752,-4.0064 -7.5312,-5.9062 -2.556,-1.8998 -5.1733,-3.7292 -7.8125,-5.5 -2.6392,-1.7708 -5.3144,-3.4851 -8.0312,-5.125 -0.77728,-0.46918 -1.5552,-0.92767 -2.3438,-1.375 l -39,29.344 c -0.56766,-0.2489 -1.1495,-0.4147 -1.7188,-0.65625 l -0.0938,0.0625 c -4.3052,-1.8309 -8.7032,-3.4374 -13.156,-4.875 -4.4531,-1.4376 -8.9587,-2.68 -13.531,-3.7188 l -0.0625,-0.1562 c -0.0222,-0.0049 -0.0403,-0.02631 -0.0625,-0.03125 l -14.031,-46.562 c -1.9734,-0.20361 -3.9249,-0.44846 -5.9062,-0.59375 -3.1846,-0.23352 -6.3933,-0.3544 -9.5938,-0.4375 -2.1406,-0.055573 -4.2889,-0.0383 -6.4375,-0.03125 -1.0756,0.011414 -2.145,-0.027863 -3.2188,0 -3.2004,0.083099 -6.3779,0.23523 -9.5625,0.46875 -1.0126,0.074219 -2.0209,0.22302 -3.0312,0.3125 l -14,46.375 c -10.159,2.0968 -20.071,5.1804 -29.594,9.2188 l -39.375,-29.594 c -1.3157,0.75378 -2.6388,1.4659 -3.9375,2.25 -2.7169,1.6399 -5.3917,3.3543 -8.0312,5.125 -2.6393,1.7708 -5.2565,3.6001 -7.8125,5.5 -2.556,1.8998 -5.064,3.8791 -7.5312,5.9062 -0.98041,0.80563 -1.9116,1.6714 -2.875,2.5 z m 181.78,39.281 c 1.3598,0.09421 2.7412,0.45154 4.0312,1.0938 5.1603,2.5689 7.223,8.7708 4.5938,13.812 -2.6293,5.0417 -8.9647,7.0377 -14.125,4.4688 -5.1603,-2.5689 -7.2231,-8.7395 -4.5938,-13.781 1.972,-3.7813 6.0144,-5.8764 10.094,-5.5938 z m -148.88,47.281 c 1.3598,0.0942 2.7412,0.45154 4.0312,1.0938 5.1604,2.5689 7.2231,8.7396 4.5938,13.781 -2.6294,5.0417 -8.9647,7.0377 -14.125,4.4688 -5.1603,-2.5689 -7.2232,-8.7395 -4.5938,-13.781 1.972,-3.7813 6.0144,-5.8451 10.094,-5.5625 z"
                 id="path5217-6-6-0-2-4-4-6-3-2-6-71-0-1-4-6-1-9-2-8"
                 style="fill:#3d7ec1;fill-opacity:1" />
              <path
                 inkscape:connector-curvature="0"
                 d="m 324.25,337.93 -16.438,-45.188 c 0.0355,-0.0384 0.0583,-0.0866 0.0937,-0.125 l -0.125,-0.375 c 6.9124,-7.5339 13.13,-15.847 18.5,-24.906 l 49.5,1.3438 c 0.98163,-2.2241 1.9852,-4.4456 2.875,-6.6875 1.2123,-3.0543 2.331,-6.105 3.375,-9.1875 1.0437,-3.0826 2.0292,-6.2072 2.9062,-9.3125 0.78571,-2.7821 1.4725,-5.5499 2.125,-8.3438 l -40.5,-27.094 c 0.0493,-0.44421 0.0175,-0.89896 0.0625,-1.3438 l -0.2812,-0.1875 c 0.4657,-4.7236 0.62152,-9.4481 0.625,-14.156 h -88.938 c -0.0178,2.8372 -0.25079,5.678 -0.65625,8.4688 -0.40549,2.7907 -1.0008,5.5447 -1.7812,8.25 -0.78046,2.7053 -1.7322,5.3565 -2.875,7.9375 -1.1428,2.581 -2.4763,5.0822 -3.9688,7.5 -1.4925,2.4178 -3.1393,4.753 -4.9688,6.9688 -1.8295,2.2157 -3.8462,4.3065 -6,6.2812 -2.1538,1.9748 -4.4407,3.8363 -6.9062,5.5312 -2.4656,1.695 -5.1104,3.2487 -7.875,4.625 -1.9729,0.98212 -3.9477,1.8279 -5.9688,2.5938 -2.0211,0.76581 -4.0702,1.4459 -6.125,2 -2.0548,0.55408 -4.1135,0.99676 -6.1875,1.3438 -0.97446,0.16302 -1.9612,0.22571 -2.9375,0.34375 -0.33383,0.043 -0.66531,0.0872 -1,0.125 -0.76929,0.081 -1.5432,0.22778 -2.3125,0.28125 -0.75201,0.0522 -1.4987,0.005 -2.25,0.0312 -0.85346,0.0369 -1.7062,0.059 -2.5625,0.0625 -0.46866,-0.002 -0.93835,0.0433 -1.4062,0.0312 -0.34445,-0.009 -0.68732,-0.0482 -1.0312,-0.0625 -1.7177,-0.0572 -3.4372,-0.21198 -5.1562,-0.40625 -7.3784,-0.83386 -14.746,-2.8573 -21.75,-6.3438 -22.117,-11.01 -34.826,-32.865 -34.969,-55.562 h -89.031 c 0.001,4.7262 0.21806,9.4773 0.6875,14.219 l -41,27.438 c 0.012024,0.0529 0.050446,0.10336 0.0625,0.15625 0.71211,3.1226 1.498,6.2384 2.375,9.3438 0.877,3.1053 1.8313,6.1987 2.875,9.2812 1.0437,3.0826 2.1628,6.1332 3.375,9.1875 0.88008,2.2174 1.8404,4.4292 2.8125,6.625 l 49.125,-1.3438 c 0.32849,0.55518 0.72672,1.0737 1.0625,1.625 h 0.3125 c 2.4078,3.9531 4.9672,7.7752 7.6875,11.438 2.7203,3.6622 5.587,7.1699 8.5938,10.531 l -16.688,45.812 c 1.45,1.2646 2.8912,2.5309 4.375,3.75 2.4672,2.0271 4.9752,4.0064 7.5312,5.9062 2.556,1.8999 5.1733,3.7293 7.8125,5.5 2.6392,1.7708 5.3144,3.4851 8.0312,5.125 0.77728,0.46924 1.5552,0.92773 2.3438,1.375 l 39,-29.344 c 0.56766,0.2489 1.1495,0.41473 1.7188,0.65619 l 0.0938,-0.0625 c 4.3052,1.8309 8.7032,3.4374 13.156,4.875 4.4531,1.4376 8.9587,2.6801 13.531,3.7188 l 0.0625,0.1562 c 0.0222,0.005 0.0403,0.0263 0.0625,0.0313 l 14.031,46.562 c 1.9734,0.20361 3.9249,0.44842 5.9062,0.59369 3.1846,0.23364 6.3933,0.35443 9.5938,0.4375 2.1406,0.0556 4.2889,0.0383 6.4375,0.0313 1.0756,-0.0114 2.145,0.0279 3.2188,0 3.2004,-0.0831 6.3779,-0.23529 9.5625,-0.46881 1.0126,-0.0742 2.0209,-0.22296 3.0312,-0.3125 l 14,-46.375 c 10.159,-2.0968 20.071,-5.1803 29.594,-9.2187 l 39.375,29.594 c 1.3157,-0.75366 2.6388,-1.4659 3.9375,-2.25 2.7169,-1.6399 5.3917,-3.3543 8.0312,-5.125 2.6393,-1.7707 5.2565,-3.6001 7.8125,-5.5 2.5561,-1.8998 5.064,-3.8791 7.5312,-5.9062 0.98041,-0.80566 1.9116,-1.6714 2.875,-2.5 z M 142.47,298.649 c -1.3598,-0.0942 -2.7412,-0.45148 -4.0312,-1.0937 -5.1603,-2.5689 -7.223,-8.7708 -4.5938,-13.812 2.6293,-5.0418 8.9647,-7.0377 14.125,-4.4688 5.1603,2.5688 7.223,8.7396 4.5938,13.781 -1.972,3.7813 -6.0144,5.8764 -10.094,5.5937 z m 148.88,-47.281 c -1.3598,-0.0942 -2.7412,-0.45154 -4.0312,-1.0938 -5.1604,-2.5689 -7.2231,-8.7396 -4.5938,-13.781 2.6294,-5.0417 8.9647,-7.0377 14.125,-4.4688 5.1603,2.5689 7.2231,8.7395 4.5938,13.781 -1.972,3.7813 -6.0144,5.8451 -10.094,5.5625 z"
                 id="path5219-3-6-5-0-2-0-1-7-5-12-1-28-2-8-9-3-5-3-9"
                 style="fill:#3d7ec1;fill-opacity:1" />
            </g>
            <g
               style="stroke-linejoin:round"
               id="g5227-2-3-1-0-3-5-8-0-2-423-0-7-7-9-2-8-0-7-2"
               transform="matrix(0.08720133,0,0,0.08720133,-1719.3156,-3650.2957)">
              <path
                 style="fill:#ffffff;stroke-width:15.97299957"
                 inkscape:connector-curvature="0"
                 d="m 193.73,98.7 c -51.39,0 -93.331,41.899 -93.331,93.289 0,51.39 41.941,93.331 93.331,93.331 51.39,0 93.289,-41.941 93.289,-93.331 0,-51.39 -41.899,-93.289 -93.289,-93.289 z m 0,21.301 c 39.862,0 71.989,32.127 71.989,71.989 0,39.862 -32.127,72.03 -71.989,72.03 -39.862,0 -72.03,-32.168 -72.03,-72.03 0,-39.862 32.168,-71.989 72.03,-71.989 z"
                 id="path5223-3-7-7-5-6-2-0-5-0-3-23-15-9-9-3-4-6-2-9" />
              <path
                 style="fill:#2dc0c4;fill-opacity:1;stroke-width:11.24499989"
                 inkscape:connector-curvature="0"
                 d="m 193.73,101.83 c -49.684,0 -90.163,40.479 -90.163,90.163 0,49.684 40.479,90.163 90.163,90.163 49.684,0 90.121,-40.479 90.121,-90.163 0,-49.684 -40.437,-90.163 -90.121,-90.163 z m 0,15.006 c 41.568,0 75.157,33.589 75.157,75.157 0,41.568 -33.589,75.157 -75.157,75.157 -41.568,0 -75.157,-33.589 -75.157,-75.157 0,-41.568 33.589,-75.157 75.157,-75.157 z"
                 id="path5225-1-8-5-1-0-1-6-8-9-87-6-7-5-27-9-45-3-7-0" />
            </g>
          </g>
        </g>
      </g>
      <circle
         r="2.3623512"
         cy="316.52826"
         cx="-69.796791"
         id="path859-1-0-3-3-79-37-1-7-8-9-5"
         style="opacity:1;fill:#2dc0c4;fill-opacity:1;stroke:none;stroke-width:1.7809999;stroke-linecap:round;stroke-miterlimit:4;stroke-dasharray:none;stroke-dashoffset:0;stroke-opacity:1" />
      <circle
         r="2.3623512"
         cy="316.62274"
         cx="-64.410622"
         id="path859-4-9-4-5-7-0-1-7-37-5-6-0"
         style="opacity:1;fill:#2dc0c4;fill-opacity:1;stroke:none;stroke-width:1.78100002;stroke-linecap:round;stroke-miterlimit:4;stroke-dasharray:none;stroke-dashoffset:0;stroke-opacity:1" />
      <circle
         r="2.3623512"
         cy="315.9613"
         cx="-111.41195"
         id="path859-2-7-6-5-73-8-4-2-4-9-5-8"
         style="opacity:1;fill:#2dc0c4;fill-opacity:1;stroke:none;stroke-width:1.78100002;stroke-linecap:round;stroke-miterlimit:4;stroke-dasharray:none;stroke-dashoffset:0;stroke-opacity:1" />
      <circle
         r="2.3623512"
         cy="315.9613"
         cx="-116.8926"
         id="path859-9-2-3-7-09-6-6-8-6-5-1-4"
         style="opacity:1;fill:#2dc0c4;fill-opacity:1;stroke:none;stroke-width:1.78100002;stroke-linecap:round;stroke-miterlimit:4;stroke-dasharray:none;stroke-dashoffset:0;stroke-opacity:1" />
    </g>
  </g>
</svg>
